<svg xmlns="http://www.w3.org/2000/svg" viewBox="0 0 100 100" width="48" height="48">
  <circle cx="50" cy="50" r="48" fill="#1B5E20"/>
  <circle cx="50" cy="50" r="44" fill="#1a3a1a"/>
  <!-- Tail feathers -->
  <path d="M38 58 Q22 72 18 82 Q20 78 26 72 Q24 76 22 82 Q26 76 32 68 Q28 74 26 80 Q30 72 36 64Z" fill="#FDD835"/>
  <path d="M36 60 Q20 70 16 80 Q22 72 28 66Z" fill="#F57F17"/>
  <path d="M37 59 Q24 68 20 78 Q24 70 30 64Z" fill="#1565C0"/>
  <!-- Body -->
  <ellipse cx="50" cy="50" rx="16" ry="20" fill="#E53935" transform="rotate(-10 50 50)"/>
  <!-- Breast -->
  <ellipse cx="52" cy="55" rx="10" ry="13" fill="#FDD835" transform="rotate(-5 52 55)"/>
  <!-- Wing -->
  <path d="M38 38 Q32 50 36 62 Q44 58 50 48 Q52 42 48 36Z" fill="#1B5E20"/>
  <path d="M34 58 Q30 64 28 68 Q34 62 36 60Z" fill="#2E7D32"/>
  <!-- Head -->
  <circle cx="58" cy="32" r="12" fill="#E53935"/>
  <!-- Eye patch -->
  <path d="M60 28 Q66 26 68 30 Q68 34 64 35 Q60 34 59 30Z" fill="#ffffff"/>
  <!-- Eye -->
  <circle cx="63" cy="30" r="2.5" fill="#1a1a1a"/>
  <circle cx="63.8" cy="29.3" r="0.8" fill="white"/>
  <!-- Beak -->
  <path d="M68 32 Q74 30 74 34 Q73 37 69 36Z" fill="#5D4037"/>
  <path d="M68 31 Q75 28 76 32 Q75 34 74 34 Q74 30 68 32Z" fill="#4E342E"/>
  <!-- Head feathers -->
  <path d="M52 24 Q54 18 58 20 Q54 22 53 24Z" fill="#E53935"/>
  <path d="M55 22 Q58 16 62 19 Q58 20 56 23Z" fill="#C62828"/>
  <!-- Feet -->
  <path d="M46 68 Q44 72 42 73 M46 68 Q46 72 44 74 M54 67 Q54 72 52 74 M54 67 Q56 72 54 74" stroke="#5D4037" stroke-width="1.5" stroke-linecap="round" fill="none"/>
  <!-- Perch -->
  <path d="M30 70 Q50 66 75 72" stroke="#5D4037" stroke-width="2" stroke-linecap="round" fill="none"/>
  <path d="M70 70 Q74 66 78 68 Q74 70 70 70Z" fill="#43A047"/>
</svg>
